HIERARCHY
ROOT Hips
{
  OFFSET 51.8187 84.2856 9.62466
  CHANNELS 6 Xposition Yposition Zposition Zrotation Xrotation Yrotation
  JOINT spine
  {
    OFFSET 0 5.95438 0.342407
    CHANNELS 3 Zrotation Xrotation Yrotation
    JOINT spine1
    {
      OFFSET 0 8.85602 0
      CHANNELS 3 Zrotation Xrotation Yrotation
      JOINT spine2
      {
        OFFSET 0 8.48567 0
        CHANNELS 3 Zrotation Xrotation Yrotation
        JOINT Neck
        {
          OFFSET 0 21.7863 1.0387
          CHANNELS 3 Zrotation Xrotation Yrotation
          JOINT Head
          {
            OFFSET 0 6.5822 0
            CHANNELS 3 Zrotation Xrotation Yrotation
            End Site
            {
              OFFSET 0 15.9326 -5.25436
            }
          }
        }
        JOINT RightShoulder
        {
          OFFSET -3.57307 9.16386 -0.497525
          CHANNELS 3 Zrotation Xrotation Yrotation
          JOINT RightArm
          {
            OFFSET 0 12.0192 0
            CHANNELS 3 Zrotation Xrotation Yrotation
            JOINT RightArmRoll
            {
              OFFSET 0 6.06755 0
              CHANNELS 3 Zrotation Xrotation Yrotation
              JOINT RightForeArm
              {
                OFFSET 0 17.6726 0
                CHANNELS 3 Zrotation Xrotation Yrotation
                JOINT RightForeArmRoll
                {
                  OFFSET 0 6.80873 0
                  CHANNELS 3 Zrotation Xrotation Yrotation
                  JOINT RightHand
                  {
                    OFFSET 0 13.6636 0
                    CHANNELS 3 Zrotation Xrotation Yrotation
                    End Site
                    {
                      OFFSET 0 0 0
                    }
                  }
                }
              }
            }
          }
        }
        JOINT LeftShoulder
        {
          OFFSET 3.57307 9.16386 -0.497525
          CHANNELS 3 Zrotation Xrotation Yrotation
          JOINT LeftArm
          {
            OFFSET 0 12.0192 0
            CHANNELS 3 Zrotation Xrotation Yrotation
            JOINT LeftArmRoll
            {
              OFFSET 0 6.06755 0
              CHANNELS 3 Zrotation Xrotation Yrotation
              JOINT LeftForeArm
              {
                OFFSET 0 17.6726 0
                CHANNELS 3 Zrotation Xrotation Yrotation
                JOINT LeftForeArmRoll
                {
                  OFFSET 0 6.80872 0
                  CHANNELS 3 Zrotation Xrotation Yrotation
                  JOINT LeftHand
                  {
                    OFFSET 0 13.6636 0
                    CHANNELS 3 Zrotation Xrotation Yrotation
                    End Site
                    {
                      OFFSET 0 0 0
                    }
                  }
                }
              }
            }
          }
        }
      }
    }
  }
  JOINT RightUpLeg
  {
    OFFSET -5.27774 -0.967797 -0.811858
    CHANNELS 3 Zrotation Xrotation Yrotation
    JOINT RightUpLegRoll
    {
      OFFSET 0 16.0214 0
      CHANNELS 3 Zrotation Xrotation Yrotation
      JOINT RightLeg
      {
        OFFSET 0 -19.8401 0
        CHANNELS 3 Zrotation Xrotation Yrotation
        JOINT RightLegRoll
        {
          OFFSET 0 19.905 0
          CHANNELS 3 Zrotation Xrotation Yrotation
          JOINT RightFoot
          {
            OFFSET 0 16.5675 0
            CHANNELS 3 Zrotation Xrotation Yrotation
            JOINT RightToeBase
            {
              OFFSET 0 13.8496 0
              CHANNELS 3 Zrotation Xrotation Yrotation
              End Site
              {
                OFFSET 0.00587034 6.70727 -0.773117
              }
            }
          }
        }
      }
    }
  }
  JOINT LeftUpLeg
  {
    OFFSET 5.27774 -0.967797 -0.811858
    CHANNELS 3 Zrotation Xrotation Yrotation
    JOINT LeftUpLegRoll
    {
      OFFSET 0 16.0215 0
      CHANNELS 3 Zrotation Xrotation Yrotation
      JOINT LeftLeg
      {
        OFFSET 0 19.84 0
        CHANNELS 3 Zrotation Xrotation Yrotation
        JOINT LeftLegRoll
        {
          OFFSET 0 20.089 0
          CHANNELS 3 Zrotation Xrotation Yrotation
          JOINT LeftFoot
          {
            OFFSET 0 16.3835 0
            CHANNELS 3 Zrotation Xrotation Yrotation
            JOINT LeftToeBase
            {
              OFFSET 0 13.8496 0
              CHANNELS 3 Zrotation Xrotation Yrotation
              End Site
              {
                OFFSET -0.0263083 6.70728 -0.773117
              }
            }
          }
        }
      }
    }
  }
}
MOTION
Frames: 5
Frame Time: 0.00208333
50.1743 83.7355 5.39561 -2.37357 -2.99023 16.6972 -0.10483 -0.706433 0.0742493 -0.209604 2.58978 0.160739 -0.211769 4.23485 0.164402 -39.7023 12.5955 -2.67695 45.7842 -2.54483 -11.7003 22.2309 0.129423 6.17526 85.725 53.405 -3.21105 -3.17757e-006 -3.45606e-007 -1.27832e-006 -19.3113 83.9174 14.652 -1.60474e-005 -2.21781e-006 -2.99984 8.03011 -4.95136 0.697626 -81.2504 -8.07035 5.55323 -127.701 44.296 55.9057 3.34404e-006 1.61044e-006 -3.0919e-007 170.544 81.0742 -165.948 5.41383e-006 7.24973e-007 3 -8.03009 -4.95139 -0.697621 -173.696 3.77377 -1.90363 180 7.01557e-015 178.968 179.43 11.8454 179.571 -3.40002e-006 -2.58338e-006 0.151401 -18.7948 68.2075 19.7127 8.13649 25.2327 -3.48773 -176.716 12.6433 0.541085 4.54188e-006 -4.6773e-006 -1.0357 0.618218 -21.1963 0.920488 3.65571e-006 3.61064e-006 -0.349025 19.418 69.0159 -20.4132 -8.13649 25.2327 3.48774 
50.1562 83.7404 5.36428 -2.40763 -2.98358 16.7758 -0.0935761 -0.681782 0.0792585 -0.187097 2.63909 0.169437 -0.189344 4.28417 0.172739 -40.1223 12.3677 -2.70768 46.0094 -2.37738 -11.8564 21.622 0.272933 6.48342 85.1074 54.319 -2.44721 -3.17757e-006 -3.45606e-007 -1.27832e-006 -13.9058 81.2235 9.23895 -1.60474e-005 -2.21781e-006 -2.99974 8.03011 -4.95136 0.697626 -81.653 -8.25268 5.63294 -127.666 44.3669 55.9365 3.34404e-006 1.61044e-006 -3.0919e-007 170.943 80.7633 -166.349 5.41383e-006 7.24973e-007 3 -8.03009 -4.95139 -0.697621 -173.66 3.84097 -1.93159 180 7.01558e-015 178.97 179.427 11.8589 179.571 -3.40002e-006 -2.58338e-006 0.151415 -18.7852 68.1961 19.7022 8.13649 25.2327 -3.48773 -176.671 12.7387 0.507855 4.54188e-006 -4.6773e-006 -1.03491 0.605601 -21.2454 0.920182 3.65571e-006 3.61064e-006 -0.350215 19.4257 69.0237 -20.421 -8.13649 25.2327 3.48774 
50.1394 83.7401 5.3005 -2.44049 -2.98444 16.8461 -0.0831937 -0.655506 0.0842344 -0.166341 2.69166 0.178163 -0.168673 4.33673 0.181136 -40.5141 12.142 -2.7412 46.201 -2.2135 -12.0071 21.0448 0.417906 6.79397 84.4272 55.2943 -1.63395 -3.17757e-006 -3.45606e-007 -1.27832e-006 -10.9486 78.3487 6.2687 -1.60474e-005 -2.21781e-006 -2.99962 8.03011 -4.95136 0.697626 -82.0389 -8.43219 5.70859 -127.627 44.4437 55.9609 3.34404e-006 1.61044e-006 -3.0919e-007 171.314 80.4532 -166.724 5.41383e-006 7.24973e-007 3 -8.03009 -4.95139 -0.697621 -173.623 3.89875 -1.95961 180 7.01558e-015 178.971 179.425 11.8701 179.571 -3.40002e-006 -2.58338e-006 0.151358 -18.7744 68.1834 19.6905 8.13649 25.2327 -3.48773 -176.622 12.8233 0.470632 4.54188e-006 -4.6773e-006 -1.03427 0.5907 -21.293 0.919291 3.65571e-006 3.61064e-006 -0.351404 19.4342 69.0325 -20.4296 -8.13649 25.2327 3.48774 
50.1206 83.7398 5.25805 -2.4719 -2.99137 16.9093 -0.0736356 -0.627979 0.0891546 -0.147243 2.74672 0.18687 -0.149661 4.3918 0.189542 -40.88 11.918 -2.77731 46.3628 -2.05246 -12.1529 20.4947 0.562557 7.10481 83.6824 56.3199 -0.770814 -3.17757e-006 -3.45606e-007 -1.27832e-006 -9.11561 75.338 4.41705 -1.60474e-005 -2.21781e-006 -2.9995 8.03011 -4.95136 0.697626 -82.4081 -8.60907 5.78061 -127.584 44.5251 55.9801 3.34404e-006 1.61044e-006 -3.0919e-007 171.66 80.1446 -167.072 5.41383e-006 7.24973e-007 3 -8.03009 -4.95139 -0.697621 -173.584 3.94868 -1.98733 180 7.01558e-015 178.973 179.424 11.8796 179.57 -3.40002e-006 -2.58338e-006 0.151249 -18.7629 68.1697 19.678 8.13649 25.2327 -3.48773 -176.571 12.8984 0.430457 4.54188e-006 -4.6773e-006 -1.03374 0.573882 -21.3388 0.917882 3.65571e-006 3.61064e-006 -0.352574 19.4433 69.0419 -20.439 -8.13649 25.2327 3.48774 
50.0895 83.7424 5.22334 -2.5016 -3.00294 16.9669 -0.0648543 -0.599573 0.0939966 -0.129707 2.80355 0.195509 -0.132211 4.44863 0.197906 -41.2225 11.6956 -2.8158 46.4986 -1.89355 -12.2944 19.9673 0.705111 7.41383 82.8716 57.3848 0.142419 -3.17757e-006 -3.45606e-007 -1.27832e-006 -7.8869 72.2235 3.16391 -1.60474e-005 -2.21781e-006 -2.99938 8.03011 -4.95136 0.697626 -82.7607 -8.78348 5.84943 -127.538 44.6102 55.9957 3.34404e-006 1.61044e-006 -3.0919e-007 171.983 79.8383 -167.398 5.41383e-006 7.24973e-007 3 -8.03009 -4.95139 -0.697621 -173.546 3.99231 -2.01441 180 7.01558e-015 178.974 179.424 11.888 179.569 -3.40002e-006 -2.58338e-006 0.151109 -18.7509 68.1554 19.665 8.13649 25.2327 -3.48773 -176.519 12.9656 0.388371 4.54188e-006 -4.6773e-006 -1.03331 0.555519 -21.3824 0.91602 3.65571e-006 3.61064e-006 -0.353706 19.4527 69.0517 -20.4487 -8.13649 25.2327 3.48774 
